<mxfile host="65bd71144e">
    <diagram id="bg_41D5jeugq3SWy1JiE" name="Page-1">
        <mxGraphModel dx="1132" dy="1857" grid="1" gridSize="10" guides="1" tooltips="1" connect="1" arrows="1" fold="1" page="1" pageScale="1" pageWidth="827" pageHeight="1169" math="0" shadow="0">
            <root>
                <mxCell id="0"/>
                <mxCell id="1" parent="0"/>
                <mxCell id="41" value="Admin" style="shape=umlActor;verticalLabelPosition=bottom;verticalAlign=top;html=1;outlineConnect=0;" parent="1" vertex="1">
                    <mxGeometry x="305.5" y="-270" width="30" height="60" as="geometry"/>
                </mxCell>
                <mxCell id="45" value="Photographed" style="shape=umlActor;verticalLabelPosition=bottom;verticalAlign=top;html=1;outlineConnect=0;" parent="1" vertex="1">
                    <mxGeometry x="305.5" y="-160" width="30" height="60" as="geometry"/>
                </mxCell>
                <mxCell id="49" value="Renter" style="shape=umlActor;verticalLabelPosition=bottom;verticalAlign=top;html=1;outlineConnect=0;" parent="1" vertex="1">
                    <mxGeometry x="308" y="-47.5" width="30" height="60" as="geometry"/>
                </mxCell>
                <mxCell id="194" value="Downloader" style="shape=umlActor;verticalLabelPosition=bottom;verticalAlign=top;html=1;outlineConnect=0;" parent="1" vertex="1">
                    <mxGeometry x="308" y="70" width="30" height="60" as="geometry"/>
                </mxCell>
                <mxCell id="258" value="/settings" style="rounded=1;whiteSpace=wrap;html=1;" vertex="1" parent="1">
                    <mxGeometry x="590" y="-100" width="110" height="100" as="geometry"/>
                </mxCell>
                <mxCell id="259" value="/photo" style="rounded=1;whiteSpace=wrap;html=1;" vertex="1" parent="1">
                    <mxGeometry x="590" width="110" height="100" as="geometry"/>
                </mxCell>
                <mxCell id="260" value="/printer" style="rounded=1;whiteSpace=wrap;html=1;" vertex="1" parent="1">
                    <mxGeometry x="590" y="100" width="110" height="100" as="geometry"/>
                </mxCell>
                <mxCell id="261" value="/themes" style="rounded=1;whiteSpace=wrap;html=1;" vertex="1" parent="1">
                    <mxGeometry x="590" y="-200" width="110" height="100" as="geometry"/>
                </mxCell>
                <mxCell id="262" value="app" style="rounded=1;whiteSpace=wrap;html=1;" vertex="1" parent="1">
                    <mxGeometry x="590" y="-300" width="110" height="100" as="geometry"/>
                </mxCell>
                <mxCell id="263" value="health /" style="endArrow=classic;html=1;entryX=0;entryY=0.25;entryDx=0;entryDy=0;" edge="1" parent="1" target="262">
                    <mxGeometry width="50" height="50" relative="1" as="geometry">
                        <mxPoint x="440" y="-275" as="sourcePoint"/>
                        <mxPoint x="490" y="-320" as="targetPoint"/>
                    </mxGeometry>
                </mxCell>
                <mxCell id="264" value="" style="endArrow=classic;html=1;entryX=0;entryY=0.25;entryDx=0;entryDy=0;" edge="1" parent="1" target="261">
                    <mxGeometry width="50" height="50" relative="1" as="geometry">
                        <mxPoint x="440" y="-175" as="sourcePoint"/>
                        <mxPoint x="490" y="-210" as="targetPoint"/>
                    </mxGeometry>
                </mxCell>
                <mxCell id="271" value="get all GET /" style="edgeLabel;html=1;align=center;verticalAlign=middle;resizable=0;points=[];" vertex="1" connectable="0" parent="264">
                    <mxGeometry x="-0.2755" y="2" relative="1" as="geometry">
                        <mxPoint as="offset"/>
                    </mxGeometry>
                </mxCell>
                <mxCell id="266" value="take POST /" style="endArrow=classic;html=1;entryX=0;entryY=0.25;entryDx=0;entryDy=0;" edge="1" parent="1" target="259">
                    <mxGeometry x="0.0061" width="50" height="50" relative="1" as="geometry">
                        <mxPoint x="440" y="25" as="sourcePoint"/>
                        <mxPoint x="564" y="30" as="targetPoint"/>
                        <mxPoint as="offset"/>
                    </mxGeometry>
                </mxCell>
                <mxCell id="267" value="get all GET /" style="endArrow=classic;html=1;entryX=0;entryY=0.5;entryDx=0;entryDy=0;" edge="1" parent="1" target="259">
                    <mxGeometry x="0.0061" width="50" height="50" relative="1" as="geometry">
                        <mxPoint x="440" y="50" as="sourcePoint"/>
                        <mxPoint x="564" y="50" as="targetPoint"/>
                        <mxPoint as="offset"/>
                    </mxGeometry>
                </mxCell>
                <mxCell id="268" value="delete DELETE /:id" style="endArrow=classic;html=1;entryX=0;entryY=0.75;entryDx=0;entryDy=0;" edge="1" parent="1" target="259">
                    <mxGeometry width="50" height="50" relative="1" as="geometry">
                        <mxPoint x="440" y="75" as="sourcePoint"/>
                        <mxPoint x="564" y="70" as="targetPoint"/>
                    </mxGeometry>
                </mxCell>
                <mxCell id="269" value="get status GET /state" style="endArrow=classic;html=1;entryX=0;entryY=0.25;entryDx=0;entryDy=0;" edge="1" parent="1">
                    <mxGeometry width="50" height="50" relative="1" as="geometry">
                        <mxPoint x="440" y="129.99999999999997" as="sourcePoint"/>
                        <mxPoint x="590" y="129.99999999999997" as="targetPoint"/>
                    </mxGeometry>
                </mxCell>
                <mxCell id="270" value="print POST /print/:id" style="endArrow=classic;html=1;entryX=0;entryY=0.5;entryDx=0;entryDy=0;" edge="1" parent="1" target="260">
                    <mxGeometry width="50" height="50" relative="1" as="geometry">
                        <mxPoint x="440" y="150" as="sourcePoint"/>
                        <mxPoint x="580" y="149.55" as="targetPoint"/>
                    </mxGeometry>
                </mxCell>
                <mxCell id="272" value="" style="endArrow=classic;html=1;entryX=0;entryY=0.25;entryDx=0;entryDy=0;" edge="1" parent="1">
                    <mxGeometry width="50" height="50" relative="1" as="geometry">
                        <mxPoint x="440" y="-150.45" as="sourcePoint"/>
                        <mxPoint x="590" y="-150.45" as="targetPoint"/>
                    </mxGeometry>
                </mxCell>
                <mxCell id="273" value="get current GET /current" style="edgeLabel;html=1;align=center;verticalAlign=middle;resizable=0;points=[];" vertex="1" connectable="0" parent="272">
                    <mxGeometry x="-0.2755" y="2" relative="1" as="geometry">
                        <mxPoint x="15" y="2" as="offset"/>
                    </mxGeometry>
                </mxCell>
                <mxCell id="274" value="" style="endArrow=classic;html=1;entryX=0;entryY=0.25;entryDx=0;entryDy=0;" edge="1" parent="1">
                    <mxGeometry width="50" height="50" relative="1" as="geometry">
                        <mxPoint x="440" y="-130.00000000000006" as="sourcePoint"/>
                        <mxPoint x="590" y="-130.00000000000006" as="targetPoint"/>
                    </mxGeometry>
                </mxCell>
                <mxCell id="275" value="set current POST /current/:id" style="edgeLabel;html=1;align=center;verticalAlign=middle;resizable=0;points=[];" vertex="1" connectable="0" parent="274">
                    <mxGeometry x="-0.2755" y="2" relative="1" as="geometry">
                        <mxPoint x="15" y="2" as="offset"/>
                    </mxGeometry>
                </mxCell>
                <mxCell id="276" value="" style="endArrow=classic;html=1;entryX=0;entryY=0.25;entryDx=0;entryDy=0;" edge="1" parent="1">
                    <mxGeometry width="50" height="50" relative="1" as="geometry">
                        <mxPoint x="440" y="-70" as="sourcePoint"/>
                        <mxPoint x="590" y="-70" as="targetPoint"/>
                    </mxGeometry>
                </mxCell>
                <mxCell id="277" value="get system GET /system" style="edgeLabel;html=1;align=center;verticalAlign=middle;resizable=0;points=[];" vertex="1" connectable="0" parent="276">
                    <mxGeometry x="-0.2755" y="2" relative="1" as="geometry">
                        <mxPoint x="16" as="offset"/>
                    </mxGeometry>
                </mxCell>
                <mxCell id="279" value="" style="endArrow=classic;html=1;entryX=0;entryY=0.25;entryDx=0;entryDy=0;" edge="1" parent="1">
                    <mxGeometry width="50" height="50" relative="1" as="geometry">
                        <mxPoint x="440" y="-50.59" as="sourcePoint"/>
                        <mxPoint x="590" y="-50.59" as="targetPoint"/>
                    </mxGeometry>
                </mxCell>
                <mxCell id="280" value="get user GET /user" style="edgeLabel;html=1;align=center;verticalAlign=middle;resizable=0;points=[];" vertex="1" connectable="0" parent="279">
                    <mxGeometry x="-0.2755" y="2" relative="1" as="geometry">
                        <mxPoint x="16" as="offset"/>
                    </mxGeometry>
                </mxCell>
                <mxCell id="281" value="" style="endArrow=classic;html=1;entryX=0;entryY=0.25;entryDx=0;entryDy=0;" edge="1" parent="1">
                    <mxGeometry width="50" height="50" relative="1" as="geometry">
                        <mxPoint x="440" y="-30.000000000000146" as="sourcePoint"/>
                        <mxPoint x="590" y="-30.000000000000146" as="targetPoint"/>
                    </mxGeometry>
                </mxCell>
                <mxCell id="282" value="set user POST /user" style="edgeLabel;html=1;align=center;verticalAlign=middle;resizable=0;points=[];" vertex="1" connectable="0" parent="281">
                    <mxGeometry x="-0.2755" y="2" relative="1" as="geometry">
                        <mxPoint x="16" as="offset"/>
                    </mxGeometry>
                </mxCell>
                <mxCell id="285" value="REST" style="text;html=1;align=center;verticalAlign=middle;resizable=0;points=[];autosize=1;strokeColor=none;fillColor=none;" vertex="1" parent="1">
                    <mxGeometry x="540" y="-380" width="60" height="30" as="geometry"/>
                </mxCell>
            </root>
        </mxGraphModel>
    </diagram>
</mxfile>
